<?xml version="1.0" encoding="UTF-8"?>
<svg id="Layer_2" data-name="Layer 2" xmlns="http://www.w3.org/2000/svg" xmlns:xlink="http://www.w3.org/1999/xlink" viewBox="0 0 169.21 184.39">
  <defs>
    <style>
      .cls-1, .cls-2 {
        fill: none;
      }

      .cls-3 {
        fill: #ece8df;
      }

      .cls-4 {
        fill: #333;
      }

      .cls-5 {
        fill: #bcccbf;
      }

      .cls-6 {
        fill: #64747b;
      }

      .cls-2 {
        stroke: #000;
        stroke-miterlimit: 10;
        stroke-width: 2px;
      }
    </style>
    <symbol id="logo" viewBox="0 0 169.21 184.39">
      <g>
        <path class="cls-2" d="m84.63,91.39"/>
        <g>
          <polygon class="cls-6" points="84.63 119.21 120.87 105.3 120.85 96.56 84.61 110.47 84.63 119.21"/>
          <path d="m83.89,120.29l-.03-10.33,37.72-14.48.03,10.33-37.72,14.48Zm1.45-9.31l.02,7.16,34.76-13.34-.02-7.16-34.76,13.34Z"/>
        </g>
        <polygon points="132.49 101.62 131.96 100.24 168.2 86.32 168.73 87.71 132.49 101.62"/>
        <g>
          <polygon class="cls-5" points="120.13 106.38 85.37 119.72 85.35 145.95 120.11 132.61 120.13 106.38"/>
          <polygon points="121.62 104.22 84.63 118.42 85.37 118.7 85.37 118.93 120.87 105.3 120.85 133.12 85.35 146.75 85.35 147.54 121.59 133.63 121.62 104.22"/>
          <polygon points="120.13 106.38 120.11 132.61 85.35 145.95 85.35 146.75 120.85 133.12 120.87 105.3 85.37 118.93 85.37 119.72 120.13 106.38"/>
          <polygon class="cls-3" points="49.1 132.61 83.87 145.95 83.89 119.72 49.13 106.38 49.1 132.61"/>
          <rect class="cls-3" x="83.88" y="119.72" width="0" height="26.23"/>
          <polygon points="48.36 133.12 48.39 105.3 83.89 118.93 83.89 118.7 84.63 118.42 47.65 104.22 47.62 133.63 83.86 147.54 83.86 146.75 48.36 133.12"/>
          <rect x="85.36" y="119.72" width="0" height="26.23"/>
          <polygon points="84.61 147.03 83.86 146.75 83.86 147.54 84.61 147.83 85.35 147.54 85.35 146.75 84.61 147.03"/>
          <polygon points="83.89 118.93 84.63 119.21 85.37 118.93 85.37 118.7 84.63 118.42 83.89 118.7 83.89 118.93"/>
          <polygon points="84.61 147.03 85.35 146.75 85.35 145.95 85.35 145.95 85.37 119.72 85.37 119.72 85.37 118.93 84.63 119.21 84.61 147.03"/>
          <polygon points="49.1 132.61 49.13 106.38 83.89 119.72 83.89 118.93 48.39 105.3 48.36 133.12 83.86 146.75 83.87 145.95 49.1 132.61"/>
          <polygon points="83.89 118.93 83.89 119.72 83.89 119.72 83.87 145.95 83.87 145.95 83.86 146.75 84.61 147.03 84.63 119.21 83.89 118.93"/>
        </g>
        <g>
          <polygon class="cls-6" points="132.23 19.07 132.23 100.93 168.47 87.02 168.47 32.99 132.23 19.07"/>
          <path d="m131.48,102.01V18l37.73,14.48v55.05l-37.73,14.48Zm1.48-81.85v79.7l34.76-13.34v-53.01l-34.76-13.34Z"/>
        </g>
        <g>
          <polygon class="cls-3" points="49.1 61.08 49.1 96.05 83.86 109.39 83.86 74.99 83.86 74.42 49.1 61.08"/>
          <polygon points="48.36 96.56 48.36 60.8 47.62 60.51 47.62 97.07 83.86 110.98 83.86 110.19 48.36 96.56"/>
          <polygon points="49.1 96.05 49.1 61.08 83.86 74.42 83.86 74.42 48.36 60.8 48.36 96.56 83.86 110.19 83.86 109.39 49.1 96.05"/>
          <polygon class="cls-4" points="83.86 47.17 50.43 60 83.86 72.83 83.86 47.17"/>
          <polygon class="cls-4" points="50.43 60 50.43 60 83.86 72.83 83.86 72.83 50.43 60"/>
          <polygon points="83.86 46.37 83.86 45.58 48.36 59.21 49.4 59.6 83.86 46.37"/>
          <polygon points="48.36 60 49.4 59.6 48.36 59.21 47.62 59.49 47.62 60.51 48.36 60.8 48.36 60"/>
          <polygon points="83.86 73.63 48.36 60 48.36 60.8 83.86 74.42 83.86 73.63"/>
          <polygon points="83.86 47.17 83.86 46.37 49.4 59.6 50.43 60 83.86 47.17"/>
          <polygon points="83.86 73.4 83.86 72.83 50.43 60 50.43 60 49.4 59.6 48.36 60 83.86 73.63 83.86 73.4"/>
          <polygon points="83.86 73.63 48.36 60 83.86 73.63 83.86 73.63"/>
          <polygon class="cls-5" points="85.35 109.39 120.11 96.05 120.11 61.08 85.35 74.42 85.35 74.99 85.35 109.39"/>
          <polygon points="120.85 96.56 85.35 110.19 85.35 110.98 121.59 97.07 121.59 60.51 120.85 60.8 120.85 96.56"/>
          <polygon points="84.61 110.47 83.86 110.19 83.86 110.98 84.61 111.27 85.35 110.98 85.35 110.19 84.61 110.47"/>
          <polygon points="83.86 74.99 83.86 109.39 83.86 110.19 84.61 110.47 84.61 74.71 83.86 74.99"/>
          <polygon points="85.35 74.42 120.11 61.08 120.11 96.05 85.35 109.39 85.35 110.19 120.85 96.56 120.85 60.8 85.35 74.42 85.35 74.42"/>
          <polygon points="85.35 74.99 84.61 74.71 84.61 74.71 84.61 110.47 85.35 110.19 85.35 109.39 85.35 74.99"/>
          <polygon points="85.35 74.42 85.35 74.42 84.61 74.71 85.35 74.99 85.35 74.42"/>
          <polygon class="cls-6" points="85.35 72.83 118.78 60 85.35 47.17 85.35 72.83"/>
          <polygon class="cls-6" points="85.35 72.83 118.78 60 118.78 60 85.35 72.83 85.35 72.83"/>
          <polygon points="118.78 60 120.85 59.21 85.35 45.58 85.35 47.17 118.78 60"/>
          <polygon points="84.61 46.09 84.61 73.12 84.61 73.12 85.35 72.83 85.35 47.17 85.35 45.58 84.61 45.29 83.86 45.58 83.86 46.37 84.61 46.09"/>
          <polygon points="84.61 73.12 84.61 73.12 84.61 73.12 84.61 73.12"/>
          <polygon points="83.86 72.83 84.61 73.12 84.61 46.09 83.86 46.37 83.86 47.17 83.86 72.83"/>
          <polygon points="83.86 72.83 83.86 73.4 84.61 73.12 84.61 73.12 83.86 72.83 83.86 72.83"/>
          <polygon points="121.59 60.51 121.59 60.51 121.59 59.49 121.59 60.51"/>
          <polygon points="83.86 74.42 83.86 74.99 84.61 74.71 84.61 74.71 83.86 74.42 83.86 74.42"/>
          <polygon points="120.85 59.21 118.78 60 118.78 60 85.35 72.83 85.35 73.4 85.35 73.63 120.85 60 120.85 60.8 121.59 60.51 121.59 59.49 120.85 59.21"/>
          <polygon points="83.86 74.42 84.61 74.71 84.61 73.91 83.86 73.63 83.86 74.42"/>
          <polygon points="84.61 73.12 85.35 73.4 85.35 72.83 85.35 72.83 84.61 73.12"/>
          <polygon points="84.61 73.12 84.61 73.91 85.35 73.63 85.35 73.4 84.61 73.12 84.61 73.12"/>
          <polygon points="83.86 73.63 84.61 73.91 84.61 73.12 83.86 73.4 83.86 73.63"/>
          <polygon points="83.86 73.63 84.61 73.91 83.86 73.63 83.86 73.63"/>
          <polygon points="84.61 74.71 84.61 74.71 84.61 74.71 84.61 74.71"/>
          <polygon points="120.85 60.8 120.85 60 85.35 73.63 85.35 74.42 120.85 60.8"/>
          <polygon points="84.61 74.71 84.61 74.71 85.35 74.42 85.35 73.63 84.61 73.91 84.61 74.71"/>
        </g>
        <g>
          <polygon class="cls-3" points="120.11 169.17 120.11 142.93 84.61 156.56 36.98 138.28 2.81 151.4 84.61 182.8 120.11 169.17"/>
          <polygon points="84.61 155.77 120.85 141.85 120.85 169.68 84.61 183.59 1.78 151.8 .74 152.19 84.61 184.39 121.59 170.19 121.59 140.78 84.61 154.97 37.73 136.98 37.73 137.77 84.61 155.77"/>
          <polygon points="36.98 138.28 84.61 156.56 120.11 142.93 120.11 169.17 84.61 182.8 2.81 151.4 1.78 151.8 84.61 183.59 120.85 169.68 120.85 141.85 84.61 155.77 37.73 137.77 37.73 138 36.98 138.28"/>
          <polygon class="cls-4" points="1.48 150.32 36.24 136.98 36.24 55.12 83.86 36.84 83.86 1.87 1.48 33.5 1.48 150.32"/>
          <polygon points="84.61 38.15 83.86 37.86 83.86 37.64 36.98 55.63 36.98 136.69 36.98 136.69 37.73 136.98 37.73 56.14 84.61 38.15"/>
          <polygon points=".74 32.99 83.86 1.08 83.86 .28 0 32.48 0 150.89 .74 150.61 .74 32.99"/>
          <polygon points="36.98 138.28 2.81 151.4 2.81 151.4 36.98 138.28 36.98 138.28"/>
          <polygon points=".74 151.4 .74 150.61 0 150.89 0 151.91 .74 152.19 1.78 151.8 .74 151.4"/>
          <polygon points="36.98 136.69 36.98 137.49 37.73 137.77 37.73 136.98 36.98 136.69 36.98 136.69"/>
          <polygon points="1.78 151.8 2.81 151.4 2.81 151.4 36.98 138.28 36.98 138.28 37.73 138 37.73 137.77 36.98 137.49 .74 151.4 1.78 151.8"/>
          <polygon points="36.24 55.12 36.24 136.98 1.48 150.32 1.48 33.5 83.86 1.87 83.86 1.08 .74 32.99 .74 150.61 36.98 136.69 36.98 55.63 83.86 37.64 83.86 36.84 36.24 55.12"/>
          <polygon points=".74 151.4 36.98 137.49 36.98 136.69 .74 150.61 .74 151.4"/>
          <polygon class="cls-1" points="116.21 50.28 120.49 51.93 120.49 51.92 116.21 50.28"/>
          <polygon class="cls-6" points="120.11 15.22 85.35 1.87 85.35 36.84 120.11 50.19 120.11 15.22"/>
          <polygon points="120.85 14.71 120.85 51.27 120.84 51.26 85.35 37.64 85.35 37.86 84.61 38.15 116.14 50.25 116.14 50.25 116.21 50.28 120.49 51.92 120.49 51.93 121.59 52.35 121.59 14.2 85.35 .28 85.35 1.08 120.85 14.71"/>
          <polygon points="85.35 37.64 84.61 37.35 83.86 37.64 83.86 37.86 84.61 38.15 85.35 37.86 85.35 37.64"/>
          <polygon points="84.61 .79 85.35 1.08 85.35 .28 84.61 0 83.86 .28 83.86 1.08 84.61 .79"/>
          <polygon points="84.61 .79 83.86 1.08 83.86 1.87 83.86 36.84 83.86 37.64 84.61 37.35 84.61 .79"/>
          <polygon points="120.11 15.22 120.11 50.19 85.35 36.84 85.35 37.64 120.84 51.26 120.85 51.27 120.85 14.71 85.35 1.08 85.35 1.87 120.11 15.22"/>
          <polygon points="85.35 37.64 85.35 36.84 85.35 1.87 85.35 1.08 84.61 .79 84.61 37.35 85.35 37.64"/>
          <polygon points="116.14 50.25 116.21 50.28 116.14 50.25 116.14 50.25"/>
        </g>
        <g>
          <polygon class="cls-5" points="142.86 134.2 142.86 123.88 167.73 114.33 167.73 88.09 132.97 101.44 132.97 164.23 167.73 150.89 167.73 124.65 142.86 134.2"/>
          <path d="m166.21,153.06s.95-.77,1.86-1.51l-35.85,13.76v-64.38l36.24-13.91v27.83l-24.87,9.55s0,8.73,0,8.73l24.12-9.26v-.17l-1.82.07-21.57,8.28v-7.15l24.87-9.54v-29.41l-37.73,14.48v65.97l36.72-14.09h0s-1.99.76-1.99.76Z"/>
          <polygon points="167.88 123.01 165.92 123.76 167.88 123.01 167.88 123.01"/>
          <path d="m168.2,151.4h-.47v-.51l-34.76,13.34v-62.8l34.76-13.34v26.24l-24.87,9.54v10.32l24.87-9.54v-.79l-24.12,9.26s0-8.73,0-8.73l24.87-9.55v-27.83l-36.24,13.91v64.38l35.85-13.76s.08-.07.12-.1v-.05Z"/>
          <polygon points="168.47 148.22 169.21 147.86 169.21 126.4 168.47 124.52 168.47 148.22"/>
          <polygon points="167.73 124.65 167.73 150.89 168.2 150.71 168.2 148.35 168.47 148.22 168.47 124.52 168.42 124.39 167.73 124.65"/>
          <polygon points="168.14 123.67 167.73 123.69 167.73 123.86 168.15 123.7 168.14 123.67"/>
          <polygon points="168.42 124.39 168.15 123.7 167.73 123.86 167.73 124.65 168.42 124.39"/>
          <polygon points="167.73 150.89 167.73 151.4 168.2 151.4 168.2 150.71 167.73 150.89"/>
          <polygon points="165.91 123.76 165.91 123.76 165.92 123.76 165.91 123.76"/>
          <polygon points="167.73 123.58 168.1 123.58 167.88 123.01 165.92 123.76 165.91 123.76 167.73 123.69 167.73 123.58"/>
          <polygon points="168.1 123.58 167.73 123.58 167.73 123.69 168.14 123.67 168.1 123.58"/>
          <polygon points="168.2 122.89 168.2 122.88 167.88 123.01 167.88 123.01 168.2 122.89"/>
          <polygon points="168.73 124.27 168.47 124.37 168.47 124.52 169.21 126.4 169.21 123.63 168.5 123.66 168.73 124.27"/>
          <polygon points="168.47 124.52 168.47 124.37 168.42 124.39 168.47 124.52"/>
          <polygon points="168.14 123.67 168.15 123.7 168.22 123.67 168.14 123.67"/>
          <polygon points="168.47 124.37 168.73 124.27 168.5 123.66 168.47 123.66 168.47 124.37"/>
          <polygon points="168.22 123.67 168.15 123.7 168.42 124.39 168.47 124.37 168.47 123.66 168.22 123.67"/>
          <polygon points="169.21 123.58 169.21 122.5 168.2 122.89 168.47 123.58 169.21 123.58"/>
          <polygon points="168.1 123.58 168.47 123.58 168.2 122.89 167.88 123.01 168.1 123.58"/>
          <polygon points="168.5 123.66 169.21 123.63 169.21 123.58 168.47 123.58 168.5 123.66"/>
          <polygon points="168.22 123.67 168.47 123.58 168.47 123.66 168.5 123.66 168.47 123.58 168.1 123.58 168.14 123.67 168.22 123.67"/>
          <polygon points="168.47 123.58 168.22 123.67 168.47 123.66 168.47 123.58"/>
          <polygon points="168.73 152.09 168.2 152.29 168.2 152.3 168.73 152.09 168.73 152.09"/>
          <path d="m168.2,151.4v.05s.04-.03.06-.05h-.06Z"/>
          <path d="m168.47,151.23c.27-.22.53-.43.74-.6v-2.77l-.74.36v3.01Z"/>
          <path d="m168.2,150.71h0s.22.56.22.56c.02-.01.03-.03.05-.04v-3.01l-.27.13v2.36Z"/>
          <path d="m168.42,151.27l-.22-.57h0v.69h.06c.05-.04.1-.08.16-.13Z"/>
          <path d="m168.08,151.55c-.91.74-1.86,1.51-1.86,1.51l1.99-.77v-.79l-.12.05Z"/>
          <path d="m168.2,151.45s-.08.07-.12.1l.12-.05v-.05Z"/>
          <polygon points="168.47 151.4 168.73 152.09 169.21 151.91 169.21 151.4 168.47 151.4"/>
          <polygon points="168.47 151.4 168.2 151.5 168.2 152.29 168.73 152.09 168.47 151.4 168.47 151.4"/>
          <path d="m168.2,151.45v.05l.27-.1h-.21s-.04.03-.06.05Z"/>
          <path d="m168.47,151.4h0s0,0,0,0h.74v-.76c-.21.17-.47.38-.74.6v.17Z"/>
          <path d="m168.47,151.4h0v-.17s-.03.03-.05.04l.05.13Z"/>
          <polygon points="168.47 151.4 168.47 151.4 168.47 151.4 168.47 151.4"/>
          <path d="m168.26,151.4h.21s-.05-.13-.05-.13c-.05.04-.1.08-.16.13Z"/>
        </g>
      </g>
    </symbol>
  </defs>
  <g id="Layer_2-2" data-name="Layer 2">
    <use width="169.21" height="184.39" xlink:href="#logo"/>
  </g>
</svg>